<svg width="1031" height="300" viewBox="0 0 1031 300" fill="none" xmlns="http://www.w3.org/2000/svg">
<path d="M192.353 97.8635V0H108.035V108.034H0V192.353H107.974C119.521 163.997 144.205 120.616 192.353 97.8635Z" fill="#06283D"/>
<path d="M203.713 109.76C223.089 93.4751 240.504 87.1543 240.504 87.1543C239.781 87.2532 239.086 87.3679 238.374 87.4747C222.197 90.2593 121.776 114.621 113.382 283.85H186.545V186.072H283.676V109.76H203.713Z" fill="#43A2CC"/>
<path d="M113.382 295.147C113.382 192.081 196.934 108.529 300 108.529V108.529V300H113.382V295.147Z" fill="#43A2CC"/>
<path d="M268.897 144.926L300 185.293V299.999H191.029L160.147 274.596L219.507 150.563L268.897 144.926Z" fill="#1F7AA3"/>
<path fill-rule="evenodd" clip-rule="evenodd" d="M172.236 144.887H267.503C268.639 144.887 269.559 145.812 269.559 146.956V262.428C269.559 263.569 268.639 264.495 267.503 264.495H256.435V275.151C256.435 276.295 255.515 277.221 254.382 277.221H159.114C157.978 277.221 157.059 276.295 157.059 275.151V159.682C157.059 158.538 157.978 157.613 159.114 157.613H170.182V146.956C170.182 145.812 171.102 144.887 172.236 144.887Z" fill="#1F7AA3"/>
<path fill-rule="evenodd" clip-rule="evenodd" d="M170.182 157.614H159.114C157.978 157.614 157.059 158.539 157.059 159.681V275.152C157.059 276.296 157.978 277.222 159.114 277.222H254.382C255.515 277.222 256.435 276.296 256.435 275.152V264.496H267.503C268.639 264.496 269.559 263.57 269.559 262.429V146.957C269.559 145.813 268.639 144.888 267.503 144.888H172.236C171.102 144.888 170.182 145.813 170.182 146.957V157.614ZM215.136 179.744C215.136 178.6 216.055 177.674 217.191 177.674H242.466C243.6 177.674 244.52 178.6 244.52 179.744C244.52 180.885 243.6 181.811 242.466 181.811H217.191C216.055 181.811 215.136 180.885 215.136 179.744ZM215.136 190.996C215.136 189.855 216.055 188.93 217.191 188.93H242.466C243.6 188.93 244.52 189.855 244.52 190.996C244.52 192.14 243.6 193.066 242.466 193.066H217.191C216.055 193.066 215.136 192.14 215.136 190.996ZM215.136 202.252C215.136 201.108 216.055 200.182 217.191 200.182H242.466C243.6 200.182 244.52 201.108 244.52 202.252C244.52 203.393 243.6 204.319 242.466 204.319H217.191C216.055 204.319 215.136 203.393 215.136 202.252ZM215.136 232.586C215.136 231.443 216.055 230.517 217.191 230.517H242.466C243.6 230.517 244.52 231.443 244.52 232.586C244.52 233.727 243.6 234.653 242.466 234.653H217.191C216.055 234.653 215.136 233.727 215.136 232.586ZM215.136 243.839C215.136 242.698 216.055 241.772 217.191 241.772H242.466C243.6 241.772 244.52 242.698 244.52 243.839C244.52 244.983 243.6 245.908 242.466 245.908H217.191C216.055 245.908 215.136 244.983 215.136 243.839ZM215.136 255.094C215.136 253.953 216.055 253.025 217.191 253.025H242.466C243.6 253.025 244.52 253.953 244.52 255.094C244.52 256.235 243.6 257.161 242.466 257.161H217.191C216.055 257.161 215.136 256.235 215.136 255.094ZM173.444 177.674H198.721C199.855 177.674 200.775 178.6 200.775 179.744V202.252C200.775 203.393 199.855 204.319 198.721 204.319H173.444C172.31 204.319 171.391 203.393 171.391 202.252V179.744C171.391 178.6 172.31 177.674 173.444 177.674ZM173.444 230.517H198.721C199.855 230.517 200.775 231.443 200.775 232.586V255.094C200.775 256.235 199.855 257.161 198.721 257.161H173.444C172.31 257.161 171.391 256.235 171.391 255.094V232.586C171.391 231.443 172.31 230.517 173.444 230.517Z" fill="#FFFFFE"/>
<path d="M263.091 148.054H171.93V156.644H252.023C253.157 156.644 254.076 157.569 254.076 158.71V259.389H263.091V148.054Z" fill="#FFFFFE"/>
<path fill-rule="evenodd" clip-rule="evenodd" d="M194.016 187.099C193.448 186.113 192.193 185.776 191.216 186.348L183.198 191.008L181.73 188.274C181.193 187.271 179.951 186.896 178.954 187.436C177.958 187.974 177.582 189.227 178.119 190.23L180.593 194.831L180.591 194.838C181.133 195.842 182.377 196.215 183.376 195.672C183.434 195.64 183.492 195.607 183.545 195.57L193.269 189.917C194.249 189.348 194.584 188.085 194.016 187.099Z" fill="#FFFFFE"/>
<path fill-rule="evenodd" clip-rule="evenodd" d="M191.216 239.192L183.198 243.851L181.73 241.118C181.193 240.115 179.951 239.739 178.954 240.28C177.958 240.818 177.582 242.07 178.119 243.073L180.591 247.682C181.133 248.685 182.377 249.061 183.376 248.516C183.434 248.484 183.492 248.45 183.545 248.414L193.269 242.761C194.249 242.191 194.584 240.929 194.016 239.943C193.448 238.957 192.193 238.62 191.216 239.192Z" fill="#FFFFFE"/>
<path d="M367 152V82H383.3L412.3 129.6H403.7L431.9 82H448.2L448.4 152H430.2L430 109.7H433.1L412 145.1H403.2L381.5 109.7H385.3V152H367ZM489.91 152.9C483.51 152.9 477.91 151.7 473.11 149.3C468.377 146.833 464.677 143.5 462.01 139.3C459.41 135.033 458.11 130.2 458.11 124.8C458.11 119.4 459.377 114.6 461.91 110.4C464.51 106.133 468.077 102.833 472.61 100.5C477.143 98.1 482.243 96.9 487.91 96.9C493.243 96.9 498.11 98 502.51 100.2C506.91 102.333 510.41 105.5 513.01 109.7C515.61 113.9 516.91 119 516.91 125C516.91 125.667 516.877 126.433 516.81 127.3C516.743 128.167 516.677 128.967 516.61 129.7H473.71V119.7H506.51L499.31 122.5C499.377 120.033 498.91 117.9 497.91 116.1C496.977 114.3 495.643 112.9 493.91 111.9C492.243 110.9 490.277 110.4 488.01 110.4C485.743 110.4 483.743 110.9 482.01 111.9C480.343 112.9 479.043 114.333 478.11 116.2C477.177 118 476.71 120.133 476.71 122.6V125.5C476.71 128.167 477.243 130.467 478.31 132.4C479.443 134.333 481.043 135.833 483.11 136.9C485.177 137.9 487.643 138.4 490.51 138.4C493.177 138.4 495.443 138.033 497.31 137.3C499.243 136.5 501.143 135.3 503.01 133.7L513.01 144.1C510.41 146.967 507.21 149.167 503.41 150.7C499.61 152.167 495.11 152.9 489.91 152.9ZM549.27 152.9C544.337 152.9 539.837 151.767 535.77 149.5C531.77 147.167 528.57 143.933 526.17 139.8C523.77 135.6 522.57 130.6 522.57 124.8C522.57 119.067 523.77 114.133 526.17 110C528.57 105.8 531.77 102.567 535.77 100.3C539.837 98.0333 544.337 96.9 549.27 96.9C553.937 96.9 557.87 97.9 561.07 99.9C564.337 101.9 566.804 104.967 568.47 109.1C570.137 113.233 570.97 118.467 570.97 124.8C570.97 131.267 570.17 136.567 568.57 140.7C566.97 144.833 564.57 147.9 561.37 149.9C558.17 151.9 554.137 152.9 549.27 152.9ZM553.27 137.8C555.404 137.8 557.304 137.3 558.97 136.3C560.704 135.3 562.07 133.833 563.07 131.9C564.07 129.9 564.57 127.533 564.57 124.8C564.57 122.067 564.07 119.767 563.07 117.9C562.07 115.967 560.704 114.5 558.97 113.5C557.304 112.5 555.404 112 553.27 112C551.07 112 549.104 112.5 547.37 113.5C545.704 114.5 544.37 115.967 543.37 117.9C542.37 119.767 541.87 122.067 541.87 124.8C541.87 127.533 542.37 129.9 543.37 131.9C544.37 133.833 545.704 135.3 547.37 136.3C549.104 137.3 551.07 137.8 553.27 137.8ZM565.17 152V142.7L565.27 124.8L564.27 106.9V77.8H583.27V152H565.17Z" fill="#06283D"/>
<path d="M631.295 153.4C625.761 153.4 620.628 152.533 615.895 150.8C611.228 149 607.161 146.467 603.695 143.2C600.295 139.933 597.628 136.1 595.695 131.7C593.761 127.233 592.795 122.333 592.795 117C592.795 111.667 593.761 106.8 595.695 102.4C597.628 97.9333 600.295 94.0667 603.695 90.8C607.161 87.5333 611.228 85.0333 615.895 83.3C620.628 81.5 625.761 80.6 631.295 80.6C637.761 80.6 643.528 81.7333 648.595 84C653.728 86.2667 657.995 89.5333 661.395 93.8L648.795 105.2C646.528 102.533 644.028 100.5 641.295 99.1C638.628 97.7 635.628 97 632.295 97C629.428 97 626.795 97.4667 624.395 98.4C621.995 99.3333 619.928 100.7 618.195 102.5C616.528 104.233 615.195 106.333 614.195 108.8C613.261 111.267 612.795 114 612.795 117C612.795 120 613.261 122.733 614.195 125.2C615.195 127.667 616.528 129.8 618.195 131.6C619.928 133.333 621.995 134.667 624.395 135.6C626.795 136.533 629.428 137 632.295 137C635.628 137 638.628 136.3 641.295 134.9C644.028 133.5 646.528 131.467 648.795 128.8L661.395 140.2C657.995 144.4 653.728 147.667 648.595 150C643.528 152.267 637.761 153.4 631.295 153.4ZM694.863 152.9C688.929 152.9 683.663 151.7 679.063 149.3C674.463 146.9 670.829 143.6 668.162 139.4C665.563 135.133 664.263 130.267 664.263 124.8C664.263 119.333 665.563 114.5 668.162 110.3C670.829 106.1 674.463 102.833 679.063 100.5C683.663 98.1 688.929 96.9 694.863 96.9C700.796 96.9 706.063 98.1 710.663 100.5C715.329 102.833 718.963 106.1 721.563 110.3C724.163 114.5 725.463 119.333 725.463 124.8C725.463 130.267 724.163 135.133 721.563 139.4C718.963 143.6 715.329 146.9 710.663 149.3C706.063 151.7 700.796 152.9 694.863 152.9ZM694.863 137.8C697.063 137.8 698.996 137.3 700.663 136.3C702.396 135.3 703.763 133.833 704.763 131.9C705.763 129.9 706.263 127.533 706.263 124.8C706.263 122.067 705.763 119.767 704.763 117.9C703.763 115.967 702.396 114.5 700.663 113.5C698.996 112.5 697.063 112 694.863 112C692.729 112 690.796 112.5 689.063 113.5C687.396 114.5 686.029 115.967 684.963 117.9C683.963 119.767 683.463 122.067 683.463 124.8C683.463 127.533 683.963 129.9 684.963 131.9C686.029 133.833 687.396 135.3 689.063 136.3C690.796 137.3 692.729 137.8 694.863 137.8ZM769.564 96.9C773.764 96.9 777.564 97.7667 780.964 99.5C784.364 101.167 787.031 103.767 788.964 107.3C790.964 110.833 791.964 115.4 791.964 121V152H772.964V124.1C772.964 120.233 772.164 117.433 770.564 115.7C769.031 113.9 766.864 113 764.064 113C762.064 113 760.231 113.467 758.564 114.4C756.897 115.267 755.597 116.633 754.664 118.5C753.731 120.367 753.264 122.8 753.264 125.8V152H734.264V97.8H752.364V113.2L748.864 108.7C750.931 104.767 753.764 101.833 757.364 99.9C760.964 97.9 765.031 96.9 769.564 96.9ZM823.593 152.9C818.993 152.9 814.493 152.367 810.093 151.3C805.76 150.233 802.26 148.9 799.593 147.3L805.293 134.3C807.826 135.833 810.793 137.067 814.193 138C817.593 138.867 820.926 139.3 824.193 139.3C827.393 139.3 829.593 138.967 830.793 138.3C832.06 137.633 832.693 136.733 832.693 135.6C832.693 134.533 832.093 133.767 830.893 133.3C829.76 132.767 828.226 132.367 826.293 132.1C824.426 131.833 822.36 131.533 820.093 131.2C817.826 130.867 815.526 130.433 813.193 129.9C810.926 129.3 808.826 128.433 806.893 127.3C805.026 126.1 803.526 124.5 802.393 122.5C801.26 120.5 800.693 117.967 800.693 114.9C800.693 111.433 801.693 108.367 803.693 105.7C805.76 102.967 808.76 100.833 812.693 99.3C816.626 97.7 821.426 96.9 827.093 96.9C830.893 96.9 834.726 97.3 838.593 98.1C842.526 98.8333 845.826 99.9667 848.493 101.5L842.793 114.4C840.126 112.867 837.46 111.833 834.793 111.3C832.126 110.7 829.593 110.4 827.193 110.4C823.993 110.4 821.726 110.767 820.393 111.5C819.126 112.233 818.493 113.133 818.493 114.2C818.493 115.267 819.06 116.1 820.193 116.7C821.326 117.233 822.826 117.667 824.693 118C826.626 118.267 828.726 118.567 830.993 118.9C833.26 119.167 835.526 119.6 837.793 120.2C840.126 120.8 842.226 121.7 844.093 122.9C846.026 124.033 847.56 125.6 848.693 127.6C849.826 129.533 850.393 132.033 850.393 135.1C850.393 138.433 849.36 141.433 847.293 144.1C845.293 146.767 842.293 148.9 838.293 150.5C834.36 152.1 829.46 152.9 823.593 152.9ZM886.98 152.9C880.58 152.9 874.98 151.7 870.18 149.3C865.447 146.833 861.747 143.5 859.08 139.3C856.48 135.033 855.18 130.2 855.18 124.8C855.18 119.4 856.447 114.6 858.98 110.4C861.58 106.133 865.147 102.833 869.68 100.5C874.214 98.1 879.314 96.9 884.98 96.9C890.314 96.9 895.18 98 899.58 100.2C903.98 102.333 907.48 105.5 910.08 109.7C912.68 113.9 913.98 119 913.98 125C913.98 125.667 913.947 126.433 913.88 127.3C913.814 128.167 913.747 128.967 913.68 129.7H870.78V119.7H903.58L896.38 122.5C896.447 120.033 895.98 117.9 894.98 116.1C894.047 114.3 892.714 112.9 890.98 111.9C889.314 110.9 887.347 110.4 885.08 110.4C882.814 110.4 880.814 110.9 879.08 111.9C877.414 112.9 876.114 114.333 875.18 116.2C874.247 118 873.78 120.133 873.78 122.6V125.5C873.78 128.167 874.314 130.467 875.38 132.4C876.514 134.333 878.114 135.833 880.18 136.9C882.247 137.9 884.714 138.4 887.58 138.4C890.247 138.4 892.514 138.033 894.38 137.3C896.314 136.5 898.214 135.3 900.08 133.7L910.08 144.1C907.48 146.967 904.28 149.167 900.48 150.7C896.68 152.167 892.18 152.9 886.98 152.9ZM958.041 96.9C962.241 96.9 966.041 97.7667 969.441 99.5C972.841 101.167 975.507 103.767 977.441 107.3C979.441 110.833 980.441 115.4 980.441 121V152H961.441V124.1C961.441 120.233 960.641 117.433 959.041 115.7C957.507 113.9 955.341 113 952.541 113C950.541 113 948.707 113.467 947.041 114.4C945.374 115.267 944.074 116.633 943.141 118.5C942.207 120.367 941.741 122.8 941.741 125.8V152H922.741V97.8H940.841V113.2L937.341 108.7C939.407 104.767 942.241 101.833 945.841 99.9C949.441 97.9 953.507 96.9 958.041 96.9ZM1016.57 152.9C1009.64 152.9 1004.24 151.2 1000.37 147.8C996.503 144.333 994.57 139.133 994.57 132.2V85.7H1013.57V132C1013.57 133.933 1014.1 135.467 1015.17 136.6C1016.24 137.667 1017.6 138.2 1019.27 138.2C1021.54 138.2 1023.47 137.633 1025.07 136.5L1029.77 149.8C1028.17 150.867 1026.2 151.633 1023.87 152.1C1021.54 152.633 1019.1 152.9 1016.57 152.9ZM986.67 114V99.8H1025.97V114H986.67Z" fill="#43A2CC"/>
<path d="M390.15 233V198H405.3C408.433 198 411.133 198.517 413.4 199.55C415.667 200.55 417.417 202 418.65 203.9C419.883 205.8 420.5 208.067 420.5 210.7C420.5 213.3 419.883 215.55 418.65 217.45C417.417 219.35 415.667 220.817 413.4 221.85C411.133 222.85 408.433 223.35 405.3 223.35H394.65L398.25 219.7V233H390.15ZM398.25 220.6L394.65 216.75H404.85C407.35 216.75 409.217 216.217 410.45 215.15C411.683 214.083 412.3 212.6 412.3 210.7C412.3 208.767 411.683 207.267 410.45 206.2C409.217 205.133 407.35 204.6 404.85 204.6H394.65L398.25 200.75V220.6ZM438.484 233.4C435.617 233.4 433.067 232.8 430.834 231.6C428.634 230.4 426.884 228.767 425.584 226.7C424.317 224.6 423.684 222.217 423.684 219.55C423.684 216.85 424.317 214.467 425.584 212.4C426.884 210.3 428.634 208.667 430.834 207.5C433.067 206.3 435.617 205.7 438.484 205.7C441.317 205.7 443.851 206.3 446.084 207.5C448.317 208.667 450.067 210.283 451.334 212.35C452.601 214.417 453.234 216.817 453.234 219.55C453.234 222.217 452.601 224.6 451.334 226.7C450.067 228.767 448.317 230.4 446.084 231.6C443.851 232.8 441.317 233.4 438.484 233.4ZM438.484 227C439.784 227 440.951 226.7 441.984 226.1C443.017 225.5 443.834 224.65 444.434 223.55C445.034 222.417 445.334 221.083 445.334 219.55C445.334 217.983 445.034 216.65 444.434 215.55C443.834 214.45 443.017 213.6 441.984 213C440.951 212.4 439.784 212.1 438.484 212.1C437.184 212.1 436.017 212.4 434.984 213C433.951 213.6 433.117 214.45 432.484 215.55C431.884 216.65 431.584 217.983 431.584 219.55C431.584 221.083 431.884 222.417 432.484 223.55C433.117 224.65 433.951 225.5 434.984 226.1C436.017 226.7 437.184 227 438.484 227ZM463.865 233L454.165 206.1H461.515L469.565 229.25H466.065L474.465 206.1H481.065L489.215 229.25H485.715L494.015 206.1H500.915L491.165 233H483.615L476.465 213.15H478.765L471.365 233H463.865ZM517.159 233.4C514.092 233.4 511.392 232.8 509.059 231.6C506.759 230.4 504.976 228.767 503.709 226.7C502.442 224.6 501.809 222.217 501.809 219.55C501.809 216.85 502.426 214.467 503.659 212.4C504.926 210.3 506.642 208.667 508.809 207.5C510.976 206.3 513.426 205.7 516.159 205.7C518.792 205.7 521.159 206.267 523.259 207.4C525.392 208.5 527.076 210.1 528.309 212.2C529.542 214.267 530.159 216.75 530.159 219.65C530.159 219.95 530.142 220.3 530.109 220.7C530.076 221.067 530.042 221.417 530.009 221.75H508.159V217.2H525.909L522.909 218.55C522.909 217.15 522.626 215.933 522.059 214.9C521.492 213.867 520.709 213.067 519.709 212.5C518.709 211.9 517.542 211.6 516.209 211.6C514.876 211.6 513.692 211.9 512.659 212.5C511.659 213.067 510.876 213.883 510.309 214.95C509.742 215.983 509.459 217.217 509.459 218.65V219.85C509.459 221.317 509.776 222.617 510.409 223.75C511.076 224.85 511.992 225.7 513.159 226.3C514.359 226.867 515.759 227.15 517.359 227.15C518.792 227.15 520.042 226.933 521.109 226.5C522.209 226.067 523.209 225.417 524.109 224.55L528.259 229.05C527.026 230.45 525.476 231.533 523.609 232.3C521.742 233.033 519.592 233.4 517.159 233.4ZM535.352 233V206.1H542.802V213.7L541.752 211.5C542.552 209.6 543.835 208.167 545.602 207.2C547.369 206.2 549.519 205.7 552.052 205.7V212.9C551.719 212.867 551.419 212.85 551.152 212.85C550.885 212.817 550.602 212.8 550.302 212.8C548.169 212.8 546.435 213.417 545.102 214.65C543.802 215.85 543.152 217.733 543.152 220.3V233H535.352ZM569.796 233.4C566.729 233.4 564.029 232.8 561.696 231.6C559.396 230.4 557.612 228.767 556.346 226.7C555.079 224.6 554.446 222.217 554.446 219.55C554.446 216.85 555.062 214.467 556.296 212.4C557.562 210.3 559.279 208.667 561.446 207.5C563.612 206.3 566.062 205.7 568.796 205.7C571.429 205.7 573.796 206.267 575.896 207.4C578.029 208.5 579.712 210.1 580.946 212.2C582.179 214.267 582.796 216.75 582.796 219.65C582.796 219.95 582.779 220.3 582.746 220.7C582.712 221.067 582.679 221.417 582.646 221.75H560.796V217.2H578.546L575.546 218.55C575.546 217.15 575.262 215.933 574.696 214.9C574.129 213.867 573.346 213.067 572.346 212.5C571.346 211.9 570.179 211.6 568.846 211.6C567.512 211.6 566.329 211.9 565.296 212.5C564.296 213.067 563.512 213.883 562.946 214.95C562.379 215.983 562.096 217.217 562.096 218.65V219.85C562.096 221.317 562.412 222.617 563.046 223.75C563.712 224.85 564.629 225.7 565.796 226.3C566.996 226.867 568.396 227.15 569.996 227.15C571.429 227.15 572.679 226.933 573.746 226.5C574.846 226.067 575.846 225.417 576.746 224.55L580.896 229.05C579.662 230.45 578.112 231.533 576.246 232.3C574.379 233.033 572.229 233.4 569.796 233.4ZM599.539 233.4C597.005 233.4 594.722 232.833 592.689 231.7C590.655 230.533 589.039 228.917 587.839 226.85C586.672 224.783 586.089 222.35 586.089 219.55C586.089 216.717 586.672 214.267 587.839 212.2C589.039 210.133 590.655 208.533 592.689 207.4C594.722 206.267 597.005 205.7 599.539 205.7C601.805 205.7 603.789 206.2 605.489 207.2C607.189 208.2 608.505 209.717 609.439 211.75C610.372 213.783 610.839 216.383 610.839 219.55C610.839 222.683 610.389 225.283 609.489 227.35C608.589 229.383 607.289 230.9 605.589 231.9C603.922 232.9 601.905 233.4 599.539 233.4ZM600.889 227C602.155 227 603.305 226.7 604.339 226.1C605.372 225.5 606.189 224.65 606.789 223.55C607.422 222.417 607.739 221.083 607.739 219.55C607.739 217.983 607.422 216.65 606.789 215.55C606.189 214.45 605.372 213.6 604.339 213C603.305 212.4 602.155 212.1 600.889 212.1C599.589 212.1 598.422 212.4 597.389 213C596.355 213.6 595.522 214.45 594.889 215.55C594.289 216.65 593.989 217.983 593.989 219.55C593.989 221.083 594.289 222.417 594.889 223.55C595.522 224.65 596.355 225.5 597.389 226.1C598.422 226.7 599.589 227 600.889 227ZM607.939 233V227.5L608.089 219.5L607.589 211.55V195.9H615.389V233H607.939ZM637.318 233V198H654.418C658.818 198 662.118 198.833 664.318 200.5C666.551 202.167 667.668 204.367 667.668 207.1C667.668 208.933 667.218 210.533 666.318 211.9C665.418 213.233 664.185 214.267 662.618 215C661.051 215.733 659.251 216.1 657.218 216.1L658.168 214.05C660.368 214.05 662.318 214.417 664.018 215.15C665.718 215.85 667.035 216.9 667.968 218.3C668.935 219.7 669.418 221.417 669.418 223.45C669.418 226.45 668.235 228.8 665.868 230.5C663.501 232.167 660.018 233 655.418 233H637.318ZM645.368 226.9H654.818C656.918 226.9 658.501 226.567 659.568 225.9C660.668 225.2 661.218 224.1 661.218 222.6C661.218 221.133 660.668 220.05 659.568 219.35C658.501 218.617 656.918 218.25 654.818 218.25H644.768V212.35H653.418C655.385 212.35 656.885 212.017 657.918 211.35C658.985 210.65 659.518 209.6 659.518 208.2C659.518 206.833 658.985 205.817 657.918 205.15C656.885 204.45 655.385 204.1 653.418 204.1H645.368V226.9ZM678.4 243.1C677 243.1 675.617 242.883 674.25 242.45C672.884 242.017 671.767 241.417 670.9 240.65L673.75 235.1C674.35 235.633 675.034 236.05 675.8 236.35C676.6 236.65 677.384 236.8 678.15 236.8C679.25 236.8 680.117 236.533 680.75 236C681.417 235.5 682.017 234.65 682.55 233.45L683.95 230.15L684.55 229.3L694.2 206.1H701.7L689.55 234.65C688.684 236.817 687.684 238.517 686.55 239.75C685.45 240.983 684.217 241.85 682.85 242.35C681.517 242.85 680.034 243.1 678.4 243.1ZM683 234.05L671 206.1H679.05L688.35 228.6L683 234.05ZM719.593 233V198H726.293L741.193 222.7H737.643L752.293 198H758.943L759.043 233H751.443L751.393 209.65H752.793L741.093 229.3H737.443L725.493 209.65H727.193V233H719.593ZM780.147 233.4C777.081 233.4 774.381 232.8 772.047 231.6C769.747 230.4 767.964 228.767 766.697 226.7C765.431 224.6 764.797 222.217 764.797 219.55C764.797 216.85 765.414 214.467 766.647 212.4C767.914 210.3 769.631 208.667 771.797 207.5C773.964 206.3 776.414 205.7 779.147 205.7C781.781 205.7 784.147 206.267 786.247 207.4C788.381 208.5 790.064 210.1 791.297 212.2C792.531 214.267 793.147 216.75 793.147 219.65C793.147 219.95 793.131 220.3 793.097 220.7C793.064 221.067 793.031 221.417 792.997 221.75H771.147V217.2H788.897L785.897 218.55C785.897 217.15 785.614 215.933 785.047 214.9C784.481 213.867 783.697 213.067 782.697 212.5C781.697 211.9 780.531 211.6 779.197 211.6C777.864 211.6 776.681 211.9 775.647 212.5C774.647 213.067 773.864 213.883 773.297 214.95C772.731 215.983 772.447 217.217 772.447 218.65V219.85C772.447 221.317 772.764 222.617 773.397 223.75C774.064 224.85 774.981 225.7 776.147 226.3C777.347 226.867 778.747 227.15 780.347 227.15C781.781 227.15 783.031 226.933 784.097 226.5C785.197 226.067 786.197 225.417 787.097 224.55L791.247 229.05C790.014 230.45 788.464 231.533 786.597 232.3C784.731 233.033 782.581 233.4 780.147 233.4ZM809.89 233.4C807.357 233.4 805.074 232.833 803.04 231.7C801.007 230.533 799.39 228.917 798.19 226.85C797.024 224.783 796.44 222.35 796.44 219.55C796.44 216.717 797.024 214.267 798.19 212.2C799.39 210.133 801.007 208.533 803.04 207.4C805.074 206.267 807.357 205.7 809.89 205.7C812.157 205.7 814.14 206.2 815.84 207.2C817.54 208.2 818.857 209.717 819.79 211.75C820.724 213.783 821.19 216.383 821.19 219.55C821.19 222.683 820.74 225.283 819.84 227.35C818.94 229.383 817.64 230.9 815.94 231.9C814.274 232.9 812.257 233.4 809.89 233.4ZM811.24 227C812.507 227 813.657 226.7 814.69 226.1C815.724 225.5 816.54 224.65 817.14 223.55C817.774 222.417 818.09 221.083 818.09 219.55C818.09 217.983 817.774 216.65 817.14 215.55C816.54 214.45 815.724 213.6 814.69 213C813.657 212.4 812.507 212.1 811.24 212.1C809.94 212.1 808.774 212.4 807.74 213C806.707 213.6 805.874 214.45 805.24 215.55C804.64 216.65 804.34 217.983 804.34 219.55C804.34 221.083 804.64 222.417 805.24 223.55C805.874 224.65 806.707 225.5 807.74 226.1C808.774 226.7 809.94 227 811.24 227ZM818.29 233V227.5L818.44 219.5L817.94 211.55V195.9H825.74V233H818.29ZM857.509 198H865.609V233H857.509V198ZM841.609 233H833.509V198H841.609V233ZM858.109 218.65H841.009V211.8H858.109V218.65ZM886.69 233.4C883.624 233.4 880.924 232.8 878.59 231.6C876.29 230.4 874.507 228.767 873.24 226.7C871.974 224.6 871.34 222.217 871.34 219.55C871.34 216.85 871.957 214.467 873.19 212.4C874.457 210.3 876.174 208.667 878.34 207.5C880.507 206.3 882.957 205.7 885.69 205.7C888.324 205.7 890.69 206.267 892.79 207.4C894.924 208.5 896.607 210.1 897.84 212.2C899.074 214.267 899.69 216.75 899.69 219.65C899.69 219.95 899.674 220.3 899.64 220.7C899.607 221.067 899.574 221.417 899.54 221.75H877.69V217.2H895.44L892.44 218.55C892.44 217.15 892.157 215.933 891.59 214.9C891.024 213.867 890.24 213.067 889.24 212.5C888.24 211.9 887.074 211.6 885.74 211.6C884.407 211.6 883.224 211.9 882.19 212.5C881.19 213.067 880.407 213.883 879.84 214.95C879.274 215.983 878.99 217.217 878.99 218.65V219.85C878.99 221.317 879.307 222.617 879.94 223.75C880.607 224.85 881.524 225.7 882.69 226.3C883.89 226.867 885.29 227.15 886.89 227.15C888.324 227.15 889.574 226.933 890.64 226.5C891.74 226.067 892.74 225.417 893.64 224.55L897.79 229.05C896.557 230.45 895.007 231.533 893.14 232.3C891.274 233.033 889.124 233.4 886.69 233.4ZM920.651 233V227.75L920.151 226.6V217.2C920.151 215.533 919.634 214.233 918.601 213.3C917.601 212.367 916.051 211.9 913.951 211.9C912.517 211.9 911.101 212.133 909.701 212.6C908.334 213.033 907.167 213.633 906.201 214.4L903.401 208.95C904.867 207.917 906.634 207.117 908.701 206.55C910.767 205.983 912.867 205.7 915.001 205.7C919.101 205.7 922.284 206.667 924.551 208.6C926.817 210.533 927.951 213.55 927.951 217.65V233H920.651ZM912.451 233.4C910.351 233.4 908.551 233.05 907.051 232.35C905.551 231.617 904.401 230.633 903.601 229.4C902.801 228.167 902.401 226.783 902.401 225.25C902.401 223.65 902.784 222.25 903.551 221.05C904.351 219.85 905.601 218.917 907.301 218.25C909.001 217.55 911.217 217.2 913.951 217.2H921.101V221.75H914.801C912.967 221.75 911.701 222.05 911.001 222.65C910.334 223.25 910.001 224 910.001 224.9C910.001 225.9 910.384 226.7 911.151 227.3C911.951 227.867 913.034 228.15 914.401 228.15C915.701 228.15 916.867 227.85 917.901 227.25C918.934 226.617 919.684 225.7 920.151 224.5L921.351 228.1C920.784 229.833 919.751 231.15 918.251 232.05C916.751 232.95 914.817 233.4 912.451 233.4ZM935.01 233V195.9H942.81V233H935.01ZM963.002 233.4C959.836 233.4 957.369 232.6 955.602 231C953.836 229.367 952.952 226.95 952.952 223.75V200.15H960.752V223.65C960.752 224.783 961.052 225.667 961.652 226.3C962.252 226.9 963.069 227.2 964.102 227.2C965.336 227.2 966.386 226.867 967.252 226.2L969.352 231.7C968.552 232.267 967.586 232.7 966.452 233C965.352 233.267 964.202 233.4 963.002 233.4ZM948.802 212.7V206.7H967.452V212.7H948.802ZM990.081 205.7C992.214 205.7 994.114 206.133 995.781 207C997.481 207.833 998.814 209.133 999.781 210.9C1000.75 212.633 1001.23 214.867 1001.23 217.6V233H993.431V218.8C993.431 216.633 992.948 215.033 991.981 214C991.048 212.967 989.714 212.45 987.981 212.45C986.748 212.45 985.631 212.717 984.631 213.25C983.664 213.75 982.898 214.533 982.331 215.6C981.798 216.667 981.531 218.033 981.531 219.7V233H973.731V195.9H981.531V213.55L979.781 211.3C980.748 209.5 982.131 208.117 983.931 207.15C985.731 206.183 987.781 205.7 990.081 205.7Z" fill="#044BA9"/>
</svg>
