<svg width="34" height="38" viewBox="0 0 34 38" fill="none" xmlns="http://www.w3.org/2000/svg">
<path d="M17 4.33341C12.9499 4.33341 9.66667 7.61666 9.66667 11.6667C9.66667 15.7168 12.9499 19.0001 17 19.0001C21.0501 19.0001 24.3333 15.7168 24.3333 11.6667C24.3333 7.61666 21.0501 4.33341 17 4.33341ZM6 11.6667C6 5.59162 10.9249 0.666748 17 0.666748C23.0751 0.666748 28 5.59162 28 11.6667C28 17.7419 23.0751 22.6667 17 22.6667C10.9249 22.6667 6 17.7419 6 11.6667ZM9.66667 30.0001C6.6291 30.0001 4.16667 32.4625 4.16667 35.5001C4.16667 36.5126 3.34586 37.3334 2.33333 37.3334C1.32081 37.3334 0.5 36.5126 0.5 35.5001C0.5 30.4375 4.60406 26.3334 9.66667 26.3334H24.3333C29.3959 26.3334 33.5 30.4375 33.5 35.5001C33.5 36.5126 32.6792 37.3334 31.6667 37.3334C30.6541 37.3334 29.8333 36.5126 29.8333 35.5001C29.8333 32.4625 27.3709 30.0001 24.3333 30.0001H9.66667Z" fill="white"/>
</svg>
